<mxfile host="65bd71144e">
    <diagram id="4bFEtiRbaB8daMl5JLGO" name="Page-1">
        <mxGraphModel dx="2509" dy="1733" grid="1" gridSize="10" guides="1" tooltips="1" connect="1" arrows="1" fold="1" page="1" pageScale="1" pageWidth="850" pageHeight="1100" background="none" math="0" shadow="0">
            <root>
                <mxCell id="0"/>
                <mxCell id="1" parent="0"/>
                <mxCell id="22" style="edgeStyle=none;html=1;sketch=1;curveFitting=1;jiggle=2;" edge="1" parent="1" source="20" target="21">
                    <mxGeometry relative="1" as="geometry"/>
                </mxCell>
                <mxCell id="20" value="" style="sketch=1;verticalLabelPosition=bottom;sketch=0;aspect=fixed;html=1;verticalAlign=top;strokeColor=none;fillColor=#000000;align=center;outlineConnect=0;pointerEvents=1;shape=mxgraph.citrix2.mobile;curveFitting=1;jiggle=2;" vertex="1" parent="1">
                    <mxGeometry x="47.80000000000001" y="180" width="45.46" height="90" as="geometry"/>
                </mxCell>
                <mxCell id="23" style="edgeStyle=none;html=1;sketch=1;curveFitting=1;jiggle=2;" edge="1" parent="1" source="21" target="20">
                    <mxGeometry relative="1" as="geometry"/>
                </mxCell>
                <mxCell id="21" value="" style="sketch=1;verticalLabelPosition=bottom;sketch=0;aspect=fixed;html=1;verticalAlign=top;strokeColor=none;fillColor=#000000;align=center;outlineConnect=0;pointerEvents=1;shape=mxgraph.citrix2.managed_desktop;curveFitting=1;jiggle=2;" vertex="1" parent="1">
                    <mxGeometry x="-20" y="327" width="181.07" height="140" as="geometry"/>
                </mxCell>
                <mxCell id="27" value="" style="rounded=1;labelBackgroundColor=none;labelBorderColor=none;textShadow=0;whiteSpace=wrap;html=1;gradientColor=none;fillColor=none;" vertex="1" parent="1">
                    <mxGeometry x="-60" y="130" width="252.27" height="380" as="geometry"/>
                </mxCell>
                <mxCell id="35" style="edgeStyle=none;html=1;" edge="1" parent="1" source="37">
                    <mxGeometry relative="1" as="geometry">
                        <mxPoint x="470" y="450" as="targetPoint"/>
                    </mxGeometry>
                </mxCell>
                <mxCell id="29" value="" style="image;aspect=fixed;perimeter=ellipsePerimeter;html=1;align=center;fontSize=12;verticalAlign=top;fontColor=#364149;shadow=0;dashed=0;image=img/lib/cumulus/rack_bare_metal.svg;" vertex="1" parent="1">
                    <mxGeometry x="690" y="320" width="123.79" height="147" as="geometry"/>
                </mxCell>
                <mxCell id="33" style="edgeStyle=none;html=1;" edge="1" parent="1" source="32" target="27">
                    <mxGeometry relative="1" as="geometry"/>
                </mxCell>
                <mxCell id="45" style="edgeStyle=none;html=1;" edge="1" parent="1" source="32" target="44">
                    <mxGeometry relative="1" as="geometry"/>
                </mxCell>
                <mxCell id="32" value="" style="sketch=0;verticalLabelPosition=bottom;sketch=0;aspect=fixed;html=1;verticalAlign=top;strokeColor=none;fillColor=#000000;align=center;outlineConnect=0;pointerEvents=1;shape=mxgraph.citrix2.network;" vertex="1" parent="1">
                    <mxGeometry x="464.46" y="110" width="134.93" height="140" as="geometry"/>
                </mxCell>
                <mxCell id="36" style="edgeStyle=none;html=1;" edge="1" parent="1" source="34" target="37">
                    <mxGeometry relative="1" as="geometry">
                        <mxPoint x="470" y="490" as="targetPoint"/>
                    </mxGeometry>
                </mxCell>
                <mxCell id="34" value="" style="image;aspect=fixed;perimeter=ellipsePerimeter;html=1;align=center;fontSize=12;verticalAlign=top;fontColor=#364149;shadow=0;dashed=0;image=img/lib/cumulus/rack_cumulus_linux.svg;" vertex="1" parent="1">
                    <mxGeometry x="663.79" y="520" width="123.79" height="147.01" as="geometry"/>
                </mxCell>
                <mxCell id="38" value="" style="edgeStyle=none;html=1;" edge="1" parent="1" source="29" target="37">
                    <mxGeometry relative="1" as="geometry">
                        <mxPoint x="470" y="450" as="targetPoint"/>
                        <mxPoint x="691" y="406" as="sourcePoint"/>
                    </mxGeometry>
                </mxCell>
                <mxCell id="37" value="" style="sketch=0;verticalLabelPosition=bottom;sketch=0;aspect=fixed;html=1;verticalAlign=top;strokeColor=none;fillColor=#000000;align=center;outlineConnect=0;pointerEvents=1;shape=mxgraph.citrix2.storefront;" vertex="1" parent="1">
                    <mxGeometry x="400" y="460" width="189.1" height="163.14" as="geometry"/>
                </mxCell>
                <mxCell id="39" style="edgeStyle=none;html=1;entryX=1;entryY=0.476;entryDx=0;entryDy=0;entryPerimeter=0;exitX=0.434;exitY=0.049;exitDx=0;exitDy=0;exitPerimeter=0;" edge="1" parent="1" source="37" target="27">
                    <mxGeometry relative="1" as="geometry">
                        <mxPoint x="480" y="430" as="sourcePoint"/>
                        <mxPoint x="379.99724000000015" y="332.02" as="targetPoint"/>
                        <Array as="points">
                            <mxPoint x="480" y="330"/>
                        </Array>
                    </mxGeometry>
                </mxCell>
                <mxCell id="40" style="edgeStyle=none;html=1;entryX=1;entryY=0.25;entryDx=0;entryDy=0;" edge="1" parent="1" source="27" target="66">
                    <mxGeometry relative="1" as="geometry">
                        <mxPoint x="163.20000000000005" y="560.0799999999999" as="targetPoint"/>
                    </mxGeometry>
                </mxCell>
                <mxCell id="68" style="edgeStyle=none;html=1;" edge="1" parent="1" source="42" target="37">
                    <mxGeometry relative="1" as="geometry"/>
                </mxCell>
                <mxCell id="42" value="" style="sketch=0;verticalLabelPosition=bottom;sketch=0;aspect=fixed;html=1;verticalAlign=top;strokeColor=none;fillColor=#000000;align=center;outlineConnect=0;pointerEvents=1;shape=mxgraph.citrix2.bridge;direction=south;" vertex="1" parent="1">
                    <mxGeometry x="390" y="680" width="50.03" height="91.57" as="geometry"/>
                </mxCell>
                <mxCell id="44" value="" style="sketch=0;verticalLabelPosition=bottom;sketch=0;aspect=fixed;html=1;verticalAlign=top;strokeColor=none;fillColor=#000000;align=center;outlineConnect=0;pointerEvents=1;shape=mxgraph.citrix2.firewall;" vertex="1" parent="1">
                    <mxGeometry x="650" y="140" width="80.13" height="80" as="geometry"/>
                </mxCell>
                <mxCell id="46" style="edgeStyle=none;html=1;entryX=0.59;entryY=0.027;entryDx=0;entryDy=0;entryPerimeter=0;" edge="1" parent="1" source="44" target="29">
                    <mxGeometry relative="1" as="geometry"/>
                </mxCell>
                <mxCell id="51" value="" style="endArrow=block;html=1;startArrow=block;startFill=1;endFill=1;exitX=0.309;exitY=0;exitDx=0;exitDy=0;exitPerimeter=0;entryX=0.662;entryY=0.986;entryDx=0;entryDy=0;entryPerimeter=0;" edge="1" parent="1" source="34" target="29">
                    <mxGeometry width="100" height="100" relative="1" as="geometry">
                        <mxPoint x="710" y="510" as="sourcePoint"/>
                        <mxPoint x="750" y="470" as="targetPoint"/>
                    </mxGeometry>
                </mxCell>
                <mxCell id="55" style="edgeStyle=none;html=1;" edge="1" parent="1" source="54" target="32">
                    <mxGeometry relative="1" as="geometry"/>
                </mxCell>
                <mxCell id="54" value="&lt;ul&gt;&lt;li&gt;&lt;i style=&quot;background-color: transparent;&quot;&gt;&lt;font style=&quot;font-size: 13px; color: rgb(0, 0, 0);&quot; face=&quot;Verdana&quot;&gt;Lock dependency versions to avoid risky updates.&lt;/font&gt;&lt;/i&gt;&lt;/li&gt;&lt;li&gt;&lt;i style=&quot;background-color: transparent;&quot;&gt;&lt;font style=&quot;font-size: 13px; color: rgb(0, 0, 0);&quot; face=&quot;Verdana&quot;&gt;&lt;span style=&quot;background-color: transparent; color: rgb(63, 63, 63);&quot;&gt;Donâ€™t use dynamic versions like latest.&lt;/span&gt;&lt;/font&gt;&lt;/i&gt;&lt;/li&gt;&lt;li&gt;&lt;i style=&quot;background-color: transparent;&quot;&gt;&lt;font style=&quot;font-size: 13px; color: rgb(0, 0, 0);&quot; face=&quot;Verdana&quot;&gt;Use plugins to scan for known vulnerabilities (e.g., OWASP, Snyk).&lt;/font&gt;&lt;/i&gt;&lt;/li&gt;&lt;li&gt;&lt;i style=&quot;background-color: transparent;&quot;&gt;&lt;font style=&quot;font-size: 13px; color: rgb(0, 0, 0);&quot; face=&quot;Verdana&quot;&gt;Enable dependency verification with checksums.&lt;/font&gt;&lt;/i&gt;&lt;/li&gt;&lt;li&gt;&lt;i style=&quot;background-color: transparent;&quot;&gt;&lt;font style=&quot;font-size: 13px; color: rgb(0, 0, 0);&quot; face=&quot;Verdana&quot;&gt;Use only trusted repositories (e.g., Maven Central)&lt;/font&gt;&lt;/i&gt;&lt;/li&gt;&lt;li&gt;&lt;i style=&quot;background-color: transparent;&quot;&gt;&lt;font style=&quot;font-size: 13px; color: rgb(0, 0, 0);&quot; face=&quot;Verdana&quot;&gt;Add static analysis tools (SpotBugs, Checkstyle, PMD).&lt;/font&gt;&lt;/i&gt;&lt;/li&gt;&lt;li&gt;&lt;i style=&quot;background-color: transparent;&quot;&gt;&lt;font style=&quot;font-size: 13px; color: rgb(0, 0, 0);&quot; face=&quot;Verdana&quot;&gt;Sign artifacts before publishing for integrity.&lt;/font&gt;&lt;/i&gt;&lt;/li&gt;&lt;li&gt;&lt;i style=&quot;background-color: transparent;&quot;&gt;&lt;font style=&quot;font-size: 13px; color: rgb(0, 0, 0);&quot; face=&quot;Verdana&quot;&gt;Store secrets in environment variables, not in code.&lt;/font&gt;&lt;/i&gt;&lt;/li&gt;&lt;li&gt;&lt;i style=&quot;background-color: transparent;&quot;&gt;&lt;font style=&quot;font-size: 13px; color: rgb(0, 0, 0);&quot; face=&quot;Verdana&quot;&gt;Avoid exposing sensitive info in build logs or scans.&lt;/font&gt;&lt;/i&gt;&lt;/li&gt;&lt;/ul&gt;&lt;font face=&quot;Verdana&quot;&gt;&lt;span style=&quot;font-size: 13px;&quot;&gt;&lt;i&gt;&lt;br&gt;&lt;/i&gt;&lt;/span&gt;&lt;/font&gt;&lt;ol style=&quot;padding-right: 0px; padding-left: 15px; padding-bottom: 0px; margin-top: 0px; margin-right: 0px; margin-bottom: 0px;&quot; data-end=&quot;629&quot; data-start=&quot;110&quot;&gt;&lt;br&gt;&lt;/ol&gt;" style="text;html=1;align=left;verticalAlign=middle;whiteSpace=wrap;rounded=0;connectable=1;allowArrows=1;backgroundOutline=0;absoluteArcSize=0;" vertex="1" parent="1">
                    <mxGeometry x="390" y="-190" width="310" height="270" as="geometry"/>
                </mxCell>
                <mxCell id="56" value="&lt;h1 style=&quot;margin-top: 0px;&quot;&gt;&lt;i&gt;Netwoking&lt;/i&gt;&lt;/h1&gt;" style="text;html=1;whiteSpace=wrap;overflow=hidden;rounded=0;align=center;" vertex="1" parent="1">
                    <mxGeometry x="430" y="-260" width="250" height="40" as="geometry"/>
                </mxCell>
                <mxCell id="57" value="" style="rounded=1;whiteSpace=wrap;html=1;glass=1;shadow=0;gradientColor=none;fillColor=none;dashed=1;strokeWidth=2;perimeterSpacing=10;" vertex="1" parent="1">
                    <mxGeometry x="390" y="-270" width="350" height="340" as="geometry"/>
                </mxCell>
                <mxCell id="60" value="&lt;div style=&quot;text-align: center;&quot;&gt;&lt;span style=&quot;color: rgb(63, 63, 63); background-color: transparent;&quot;&gt;&lt;font style=&quot;font-size: 11px;&quot; face=&quot;Lucida Console&quot;&gt;&lt;br&gt;&lt;/font&gt;&lt;/span&gt;&lt;/div&gt;&lt;span style=&quot;color: rgb(63, 63, 63); background-color: transparent;&quot;&gt;&lt;font style=&quot;&quot; face=&quot;Lucida Console&quot;&gt;&lt;h3 style=&quot;text-align: center;&quot;&gt;&lt;font style=&quot;font-size: 14px;&quot;&gt;&lt;span style=&quot;color: rgb(63, 63, 63); background-color: transparent;&quot;&gt;FIRE WALL&lt;/span&gt;&lt;span style=&quot;background-color: transparent;&quot;&gt;&amp;nbsp; &amp;nbsp; &amp;nbsp; &amp;nbsp; &amp;nbsp; &amp;nbsp;&lt;/span&gt;&lt;/font&gt;&lt;/h3&gt;&lt;h3 style=&quot;&quot;&gt;&lt;ul style=&quot;&quot;&gt;&lt;li style=&quot;&quot;&gt;&lt;span style=&quot;background-color: transparent; font-weight: normal;&quot;&gt;&lt;i style=&quot;&quot;&gt;&lt;font style=&quot;font-size: 13px;&quot;&gt;Allow HTTP (Port 80) â€“ For regular web traffic&lt;/font&gt;&lt;/i&gt;&lt;/span&gt;&lt;/li&gt;&lt;li style=&quot;&quot;&gt;&lt;span style=&quot;background-color: transparent; font-weight: normal;&quot;&gt;&lt;i&gt;&lt;font style=&quot;font-size: 13px;&quot;&gt;Allow HTTPS (Port 443) â€“ For secure web traffic&lt;/font&gt;&lt;/i&gt;&lt;/span&gt;&lt;/li&gt;&lt;li style=&quot;&quot;&gt;&lt;span style=&quot;background-color: transparent; font-weight: normal;&quot;&gt;&lt;i&gt;&lt;font style=&quot;font-size: 13px;&quot;&gt;Block all incoming traffic by default â€“ Only allow whatâ€™s needed&lt;/font&gt;&lt;/i&gt;&lt;/span&gt;&lt;/li&gt;&lt;li style=&quot;&quot;&gt;&lt;span style=&quot;background-color: transparent; font-weight: normal;&quot;&gt;&lt;i&gt;&lt;font style=&quot;font-size: 13px;&quot;&gt;Allow SSH (Port 22) â€“ For remote access (only if necessary)&lt;/font&gt;&lt;/i&gt;&lt;/span&gt;&lt;/li&gt;&lt;li style=&quot;&quot;&gt;&lt;span style=&quot;background-color: transparent; font-weight: normal;&quot;&gt;&lt;i&gt;&lt;font style=&quot;font-size: 13px;&quot;&gt;Allow DNS (Port 53) â€“ For domain name resolution&lt;/font&gt;&lt;/i&gt;&lt;/span&gt;&lt;/li&gt;&lt;li style=&quot;&quot;&gt;&lt;span style=&quot;background-color: transparent; font-weight: normal;&quot;&gt;&lt;i&gt;&lt;font style=&quot;font-size: 13px;&quot;&gt;Block unused ports â€“ Reduces attack surface&lt;/font&gt;&lt;/i&gt;&lt;/span&gt;&lt;/li&gt;&lt;li style=&quot;&quot;&gt;&lt;span style=&quot;font-weight: normal;&quot;&gt;&lt;i&gt;&lt;font style=&quot;font-size: 13px;&quot;&gt;&lt;span style=&quot;background-color: transparent; color: rgb(63, 63, 63);&quot;&gt;Allow outbound traffic&lt;/span&gt;&lt;span style=&quot;background-color: transparent; color: rgb(63, 63, 63);&quot;&gt; â€“ But restrict if needed (e.g., to specific IPs)&lt;/span&gt;&lt;/font&gt;&lt;/i&gt;&lt;/span&gt;&lt;/li&gt;&lt;li style=&quot;&quot;&gt;&lt;span style=&quot;background-color: transparent; font-weight: normal;&quot;&gt;&lt;i&gt;&lt;font style=&quot;font-size: 13px;&quot;&gt;Limit access by IP â€“ Allow only trusted IPs for sensitive service&lt;/font&gt;&lt;/i&gt;&lt;/span&gt;&lt;/li&gt;&lt;li style=&quot;&quot;&gt;&lt;span style=&quot;background-color: transparent; font-weight: normal;&quot;&gt;&lt;i&gt;&lt;font style=&quot;font-size: 13px;&quot;&gt;Log dropped/blocked packets â€“ For monitoring and auditing&lt;/font&gt;&lt;/i&gt;&lt;/span&gt;&lt;/li&gt;&lt;li style=&quot;&quot;&gt;&lt;span style=&quot;background-color: transparent; font-weight: normal;&quot;&gt;&lt;i style=&quot;&quot;&gt;&lt;font style=&quot;font-size: 13px;&quot;&gt;Rate limit connections â€“ Helps prevent DoS attacks&lt;/font&gt;&lt;/i&gt;&lt;/span&gt;&lt;/li&gt;&lt;/ul&gt;&lt;/h3&gt;&lt;/font&gt;&lt;/span&gt;&lt;div&gt;&lt;div&gt;&lt;ul&gt;&lt;li data-start=&quot;690&quot; data-end=&quot;748&quot;&gt;&lt;br&gt;&lt;/li&gt;&lt;/ul&gt;&lt;/div&gt;&lt;/div&gt;" style="text;html=1;align=left;verticalAlign=middle;whiteSpace=wrap;rounded=0;" vertex="1" parent="1">
                    <mxGeometry x="810" y="20" width="500" height="260" as="geometry"/>
                </mxCell>
                <mxCell id="63" style="edgeStyle=none;html=1;" edge="1" parent="1" source="61" target="44">
                    <mxGeometry relative="1" as="geometry"/>
                </mxCell>
                <mxCell id="61" value="" style="rounded=1;whiteSpace=wrap;html=1;gradientColor=none;fillColor=none;dashed=1;strokeWidth=2;" vertex="1" parent="1">
                    <mxGeometry x="810" width="420" height="300" as="geometry"/>
                </mxCell>
                <mxCell id="65" value="&lt;ul&gt;&lt;li&gt;&lt;font style=&quot;font-size: 13px;&quot; face=&quot;Lucida Console&quot;&gt;&lt;i&gt;&lt;span style=&quot;color: rgb(63, 63, 63); background-color: transparent;&quot;&gt;An&amp;nbsp;&lt;/span&gt;&lt;span style=&quot;color: rgb(63, 63, 63); background-color: transparent; scrollbar-color: rgb(226, 226, 226) rgb(251, 251, 251);&quot; data-end=&quot;114&quot; data-start=&quot;75&quot;&gt;interface defines method signatures&lt;/span&gt;&lt;span style=&quot;color: rgb(63, 63, 63); background-color: transparent;&quot;&gt;&amp;nbsp;without code.&lt;/span&gt;&lt;/i&gt;&lt;/font&gt;&lt;/li&gt;&lt;li&gt;&lt;font style=&quot;font-size: 13px;&quot; face=&quot;Lucida Console&quot;&gt;&lt;i&gt;&lt;span style=&quot;color: rgb(63, 63, 63); background-color: transparent;&quot;&gt;A class&lt;/span&gt;&lt;span style=&quot;color: rgb(63, 63, 63); background-color: transparent;&quot;&gt;&amp;nbsp;&lt;/span&gt;&lt;span style=&quot;color: rgb(63, 63, 63); background-color: transparent; scrollbar-color: rgb(226, 226, 226) rgb(251, 251, 251);&quot; data-end=&quot;156&quot; data-start=&quot;142&quot;&gt;implements&lt;/span&gt;&lt;span style=&quot;color: rgb(63, 63, 63); background-color: transparent;&quot;&gt;&amp;nbsp;&lt;/span&gt;&lt;span style=&quot;color: rgb(63, 63, 63); background-color: transparent;&quot;&gt;an interface to provide method logic.&lt;/span&gt;&lt;/i&gt;&lt;/font&gt;&lt;/li&gt;&lt;li&gt;&lt;font style=&quot;font-size: 13px;&quot; face=&quot;Lucida Console&quot;&gt;&lt;i&gt;&lt;span style=&quot;color: rgb(63, 63, 63); background-color: transparent;&quot;&gt;Interfaces help in&lt;/span&gt;&lt;span style=&quot;color: rgb(63, 63, 63); background-color: transparent;&quot;&gt;&amp;nbsp;&lt;/span&gt;&lt;span style=&quot;color: rgb(63, 63, 63); background-color: transparent; scrollbar-color: rgb(226, 226, 226) rgb(251, 251, 251);&quot; data-end=&quot;234&quot; data-start=&quot;219&quot;&gt;abstraction&lt;/span&gt;&lt;span style=&quot;color: rgb(63, 63, 63); background-color: transparent;&quot;&gt;&amp;nbsp;&lt;/span&gt;&lt;span style=&quot;color: rgb(63, 63, 63); background-color: transparent;&quot;&gt;and&lt;/span&gt;&lt;span style=&quot;color: rgb(63, 63, 63); background-color: transparent;&quot;&gt;&amp;nbsp;&lt;/span&gt;&lt;span style=&quot;color: rgb(63, 63, 63); background-color: transparent; scrollbar-color: rgb(226, 226, 226) rgb(251, 251, 251);&quot; data-end=&quot;263&quot; data-start=&quot;239&quot;&gt;multiple inheritance&lt;/span&gt;&lt;span style=&quot;color: rgb(63, 63, 63); background-color: transparent;&quot;&gt;.&lt;/span&gt;&lt;/i&gt;&lt;/font&gt;&lt;/li&gt;&lt;/ul&gt;" style="text;html=1;align=left;verticalAlign=middle;whiteSpace=wrap;rounded=0;" vertex="1" parent="1">
                    <mxGeometry x="-150" y="560" width="300" height="160" as="geometry"/>
                </mxCell>
                <mxCell id="66" value="&lt;h2 style=&quot;scrollbar-color: rgb(226, 226, 226) rgb(251, 251, 251);&quot;&gt;&lt;strong style=&quot;scrollbar-color: rgb(226, 226, 226) rgb(251, 251, 251); color: rgb(63, 63, 63);&quot; data-end=&quot;114&quot; data-start=&quot;75&quot;&gt;&lt;font face=&quot;Times New Roman&quot;&gt;INTERFACE&lt;/font&gt;&lt;/strong&gt;&lt;/h2&gt;" style="text;html=1;whiteSpace=wrap;overflow=hidden;rounded=0;" vertex="1" parent="1">
                    <mxGeometry x="-110" y="540" width="110" height="43.14" as="geometry"/>
                </mxCell>
                <mxCell id="72" style="edgeStyle=none;html=1;" edge="1" parent="1" source="67">
                    <mxGeometry relative="1" as="geometry">
                        <mxPoint x="399.99999999999955" y="710" as="targetPoint"/>
                    </mxGeometry>
                </mxCell>
                <mxCell id="67" value="" style="rounded=1;whiteSpace=wrap;html=1;fillColor=none;dashed=1;strokeWidth=2;" vertex="1" parent="1">
                    <mxGeometry x="-150" y="550" width="320" height="160" as="geometry"/>
                </mxCell>
            </root>
        </mxGraphModel>
    </diagram>
</mxfile>